# xmcd
#
# Track frame offsets:
#	150
#	34992
#	54810
#	71134
#	94601
#	125481
#	146225
#	171160
#	186982
#	204572
#	225223
#	241503
#	258235
#	272277
#	297711
#
# Disc length: 4200 seconds
#
# Revision: 0
# Processed by: cddbd v1.4PL0 Copyright (c) Steve Scherf et al.
# Submitted via: dBpowerAMP V4.0
#
DISCID=d610660f
DTITLE=Billy Jones - Prime Suspect For The Blues
DYEAR=2001
DGENRE=Blues
TTITLE0=Marry My Mother-in-law
TTITLE1=Slip Away
TTITLE2=Come Back Tonight
TTITLE3=Doin Alright Again
TTITLE4=Let's Straighten It Out
TTITLE5=Ain't Good Lookin
TTITLE6=Her Daddy's Alligator Farm
TTITLE7=The One For Me
TTITLE8=Be Your Man
TTITLE9=Don't Answer The Door
TTITLE10=Anything You Say
TTITLE11=The Rumor
TTITLE12=Make Love Tonight
TTITLE13=Barnyard Love
TTITLE14=Breakdown
EXTD=
EXTT0=
EXTT1=
EXTT2=
EXTT3=
EXTT4=
EXTT5=
EXTT6=
EXTT7=
EXTT8=
EXTT9=
EXTT10=
EXTT11=
EXTT12=
EXTT13=
EXTT14=
PLAYORDER=
